<svg width="627" height="140" viewBox="0 0 627 140" fill="none" xmlns="http://www.w3.org/2000/svg">
<circle cx="70.5" cy="69.5" r="62.5" stroke="#ABC9AB" stroke-width="8"/>
<line x1="40.9393" y1="100.457" x2="102.458" y2="38.9386" stroke="black" stroke-width="3"/>
<line x1="59.9393" y1="104.705" x2="106.705" y2="57.939" stroke="black" stroke-width="3"/>
<line x1="80.9393" y1="107.443" x2="109.224" y2="79.159" stroke="black" stroke-width="3"/>
<line x1="31.9393" y1="59.4432" x2="60.2236" y2="31.159" stroke="black" stroke-width="3"/>
<line x1="34.9393" y1="80.705" x2="81.7053" y2="33.939" stroke="black" stroke-width="3"/>
<path d="M263.092 107.002H200.442L188.091 136H164.105L220.49 10.7H243.402L299.966 136H275.622L263.092 107.002ZM255.395 88.744L231.767 33.97L208.318 88.744H255.395ZM370.338 130.809C367.713 132.957 364.491 134.568 360.672 135.642C356.973 136.716 353.035 137.253 348.858 137.253C338.357 137.253 330.242 134.508 324.514 129.019C318.786 123.53 315.922 115.534 315.922 105.033V59.03H300.17V41.13H315.922V19.292H338.297V41.13H363.894V59.03H338.297V104.496C338.297 109.15 339.431 112.73 341.698 115.236C343.966 117.623 347.247 118.816 351.543 118.816C356.555 118.816 360.732 117.503 364.073 114.878L370.338 130.809ZM388.744 3.18199H411.119V136H388.744V3.18199ZM477.003 39.34C491.084 39.34 501.824 42.741 509.223 49.543C516.741 56.2257 520.5 66.369 520.5 79.973V136H499.378V124.365C496.633 128.542 492.695 131.764 487.564 134.031C482.552 136.179 476.466 137.253 469.306 137.253C462.146 137.253 455.881 136.06 450.511 133.673C445.141 131.167 440.964 127.766 437.981 123.47C435.117 119.055 433.685 114.102 433.685 108.613C433.685 100.021 436.847 93.1593 443.172 88.028C449.616 82.7773 459.699 80.152 473.423 80.152H498.125V78.72C498.125 72.0373 496.096 66.906 492.039 63.326C488.101 59.746 482.194 57.956 474.318 57.956C468.948 57.956 463.637 58.7913 458.387 60.462C453.255 62.1327 448.9 64.4597 445.32 67.443L436.549 51.154C441.561 47.3353 447.587 44.4117 454.628 42.383C461.668 40.3543 469.127 39.34 477.003 39.34ZM473.96 120.964C479.568 120.964 484.521 119.711 488.817 117.205C493.232 114.58 496.335 110.88 498.125 106.107V95.009H475.034C462.146 95.009 455.702 99.2453 455.702 107.718C455.702 111.775 457.313 114.997 460.535 117.384C463.757 119.771 468.232 120.964 473.96 120.964ZM578.75 137.253C570.993 137.253 563.416 136.239 556.017 134.21C548.618 132.181 542.711 129.616 538.296 126.513L546.888 109.508C551.184 112.372 556.315 114.699 562.282 116.489C568.368 118.16 574.335 118.995 580.182 118.995C593.547 118.995 600.23 115.475 600.23 108.434C600.23 105.093 598.5 102.766 595.039 101.453C591.698 100.14 586.268 98.8873 578.75 97.694C570.874 96.5007 564.43 95.1283 559.418 93.577C554.525 92.0257 550.229 89.3407 546.53 85.522C542.95 81.584 541.16 76.1543 541.16 69.233C541.16 60.1637 544.919 52.944 552.437 47.574C560.074 42.0847 570.337 39.34 583.225 39.34C589.788 39.34 596.352 40.1157 602.915 41.667C609.478 43.099 614.848 45.068 619.025 47.574L610.433 64.579C602.318 59.8057 593.189 57.419 583.046 57.419C576.483 57.419 571.471 58.4333 568.01 60.462C564.669 62.3713 562.998 64.937 562.998 68.159C562.998 71.739 564.788 74.3047 568.368 75.856C572.067 77.288 577.736 78.6603 585.373 79.973C593.01 81.1663 599.275 82.5387 604.168 84.09C609.061 85.6413 613.237 88.2667 616.698 91.966C620.278 95.6653 622.068 100.916 622.068 107.718C622.068 116.668 618.19 123.828 610.433 129.198C602.676 134.568 592.115 137.253 578.75 137.253Z" fill="black"/>
</svg>
