<?xml version="1.0" standalone="no"?>
<!DOCTYPE svg PUBLIC "-//W3C//DTD SVG 20010904//EN"
 "http://www.w3.org/TR/2001/REC-SVG-20010904/DTD/svg10.dtd">
<svg version="1.0" xmlns="http://www.w3.org/2000/svg"
 width="700.000000pt" height="700.000000pt" viewBox="0 0 700.000000 700.000000"
 preserveAspectRatio="xMidYMid meet">
<metadata>
Created by potrace 1.14, written by Peter Selinger 2001-2017
</metadata>
<g transform="translate(0.000000,700.000000) scale(0.100000,-0.100000)"
fill="#000000" stroke="none">
<path d="M3278 6995 c-1 -1 -41 -5 -88 -9 -47 -4 -96 -8 -110 -10 -14 -2 -46
-7 -71 -10 -51 -7 -66 -10 -154 -25 -86 -16 -91 -17 -185 -41 -47 -12 -95 -24
-107 -26 -38 -7 -261 -83 -364 -124 -881 -351 -1596 -1067 -1949 -1951 -66
-165 -142 -408 -165 -530 -3 -13 -12 -58 -20 -99 -8 -41 -17 -89 -19 -105 -3
-17 -7 -46 -11 -66 -6 -40 -10 -74 -22 -199 -15 -163 -8 -600 12 -710 2 -14 7
-47 10 -75 42 -396 239 -953 465 -1318 30 -48 60 -95 65 -105 24 -42 133 -191
208 -285 200 -248 433 -468 692 -653 61 -44 120 -84 130 -91 11 -6 61 -36 110
-67 333 -202 736 -356 1125 -431 96 -18 123 -23 179 -31 25 -3 57 -8 71 -10
163 -25 682 -25 842 1 13 2 46 7 73 10 74 11 87 13 120 19 17 4 46 9 65 12 51
8 213 48 300 74 627 183 1199 545 1630 1029 36 41 70 79 76 85 29 30 185 242
240 326 120 184 241 412 315 597 66 163 147 422 175 558 16 75 54 300 60 350
4 33 9 76 11 95 8 69 10 546 2 610 -4 36 -10 90 -13 120 -4 30 -8 66 -10 80
-2 14 -7 48 -11 75 -3 28 -8 58 -11 67 -5 18 -11 46 -20 93 -11 66 -65 265
-94 355 -230 698 -662 1298 -1246 1732 -444 329 -996 563 -1524 643 -25 4 -53
9 -62 11 -9 1 -43 6 -75 9 -32 4 -76 9 -98 12 -44 5 -541 13 -547 8z m527
-430 c17 -2 53 -6 80 -9 28 -4 61 -9 75 -11 14 -3 41 -7 60 -10 408 -64 846
-242 1224 -497 31 -22 181 -132 186 -138 3 -3 34 -29 70 -59 79 -66 255 -241
336 -335 244 -282 449 -640 576 -1006 30 -86 64 -204 74 -250 2 -14 7 -32 10
-40 3 -8 12 -49 20 -90 8 -41 16 -84 18 -95 44 -233 55 -667 23 -895 -2 -14
-7 -50 -11 -80 -24 -181 -122 -552 -175 -665 -6 -11 -24 -54 -40 -95 -132
-325 -366 -672 -636 -944 -173 -175 -264 -252 -430 -368 -407 -284 -850 -456
-1365 -532 -180 -27 -646 -28 -776 -2 -12 2 -45 7 -75 11 -30 3 -61 8 -69 10
-8 2 -31 7 -50 10 -152 24 -437 108 -616 183 -521 217 -998 600 -1329 1067
-28 38 -54 77 -60 86 -178 290 -270 483 -353 739 -34 103 -78 266 -87 321 -3
19 -10 57 -15 84 -18 94 -22 119 -37 275 -14 150 -7 556 11 656 3 17 10 62 22
137 9 58 15 89 30 154 9 38 17 76 19 86 7 31 56 189 81 260 272 764 829 1390
1554 1744 169 82 319 139 550 207 63 19 271 61 345 71 28 4 61 9 75 11 14 2
66 6 115 10 50 3 92 8 94 10 4 4 436 -5 476 -11z"/>
<path d="M2158 4830 c-406 -406 -738 -741 -738 -744 0 -9 99 -106 108 -106 4
0 340 333 747 740 l739 739 -20 22 c-28 32 -88 89 -94 88 -3 0 -337 -332 -742
-739z"/>
<path d="M2798 4193 l-1228 -1228 54 -52 c30 -29 57 -53 60 -53 9 0 2456 2449
2456 2458 0 10 -96 102 -107 102 -4 0 -560 -552 -1235 -1227z"/>
<path d="M3505 3543 l-1616 -1616 55 -56 56 -56 1615 1615 c888 888 1615 1619
1615 1624 0 9 -95 106 -104 106 -2 0 -732 -727 -1621 -1617z"/>
<path d="M4117 2932 l-1227 -1227 55 -57 54 -58 1231 1232 1231 1231 -53 54
c-29 29 -55 53 -58 53 -3 0 -557 -552 -1233 -1228z"/>
<path d="M4736 2301 l-739 -739 19 -23 c10 -13 35 -39 55 -57 l37 -32 741 741
c407 407 741 742 741 745 0 7 -100 104 -107 104 -5 0 -341 -332 -747 -739z"/>
</g>
</svg>
